HIERARCHY
ROOT pelvis
{
  OFFSET 0 100 0
  CHANNELS 6 Xposition Yposition Zposition Zrotation Xrotation Yrotation
  JOINT pelvis_right_femur
  {
    OFFSET -10.78128 -3.44521 -0.5502486
    CHANNELS 3 Zrotation Xrotation Yrotation
    JOINT right_femur_tibia
    {
      OFFSET -0.8047443 -44.0398 -0.1307829
      CHANNELS 3 Zrotation Xrotation Yrotation
      JOINT right_tibia_foot
      {
        OFFSET 3.006224 -47.83518 -5
        CHANNELS 3 Zrotation Xrotation Yrotation
        End Site
        {
          OFFSET 0 -5 15
        }
      }
    }
  }
  JOINT pelvis_left_femur
  {
    OFFSET 10.78128 -3.44521 -0.5502486
    CHANNELS 3 Zrotation Xrotation Yrotation
    JOINT left_femur_tibia
    {
      OFFSET 0.8047443 -44.0398 -0.1307829
      CHANNELS 3 Zrotation Xrotation Yrotation
      JOINT left_tibia_foot
      {
        OFFSET -4.370144 -48.10324 -4.275266
        CHANNELS 3 Zrotation Xrotation Yrotation
        End Site
        {
          OFFSET 0 -5 15
        }
      }
    }
  }
  JOINT pelvis_spine1
  {
    OFFSET 0 6.468898 -3.129235
    CHANNELS 3 Zrotation Xrotation Yrotation
    JOINT spine1
    {
      OFFSET 0 23.15396 4.99043
      CHANNELS 3 Zrotation Xrotation Yrotation
      JOINT spine2
      {
        OFFSET 0 20.79997 -5.064912
        CHANNELS 3 Zrotation Xrotation Yrotation
        JOINT neck
        {
          OFFSET 0 14.38658 9.616178
          CHANNELS 3 Zrotation Xrotation Yrotation
          End Site
          {
            OFFSET 0 20 0
          }
        }
      }
      JOINT right_manubrium
      {
        OFFSET -5.722621 16.35077 3.967754
        CHANNELS 3 Zrotation Xrotation Yrotation
        JOINT right_clavicle
        {
          OFFSET -13.16364 1.694482 -4.693211
          CHANNELS 3 Zrotation Xrotation Yrotation
          JOINT right_humerus
          {
            OFFSET -28.5034 -0.3100689 -2.792744
            CHANNELS 3 Zrotation Xrotation Yrotation
            JOINT right_radius
            {
              OFFSET -25.15693 0.02248979 -1.271978
              CHANNELS 3 Zrotation Xrotation Yrotation
              End Site
              {
                OFFSET -15 0 0
              }
            }
          }
        }
      }
      JOINT left_manubrium
      {
        OFFSET 5.722621 16.35077 3.967754
        CHANNELS 3 Zrotation Xrotation Yrotation
        JOINT left_clavicle
        {
          OFFSET 13.16364 1.694482 -4.693211
          CHANNELS 3 Zrotation Xrotation Yrotation
          JOINT left_humerus
          {
            OFFSET 29.39168 -1.063119 -2.237045
            CHANNELS 3 Zrotation Xrotation Yrotation
            JOINT left_radius
            {
              OFFSET 24.59957 -0.9528479 0.9047498
              CHANNELS 3 Zrotation Xrotation Yrotation
              End Site
              {
                OFFSET 15 -0 -0
              }
            }
          }
        }
      }
    }
  }
}
MOTION
Frames: 7
Frame Time: 0.0416666666667
1487.332 165.9058 2611.154 1.183504 -4.533174 4.994973 2.760675 21.50137 0.7189789 -0 9.598648 -0 -3.398394 -11.50693 1.380385 1.565553 -27.83588 -3.071305 -0 11.0459 -0 -3.916279 -7.413008 19.02537 -1.623651 -0.5407106 7.945573 -0.4981768 9.468901 -2.792357 1.389455 22.30637 5.069645 2.19399 -19.25806 6.067901 -0.7536554 -23.67037 10.81639 80.85688 23.76086 -3.750583 -0 0 23.71942 -25.17093 9.256961 16.60498 4.686328 -16.68369 -2.541944 -94.59265 21.75819 27.79903 0 0 -9.853306 -0.1816711 9.013448 13.17047
1489.05 165.0243 2618.068 1.374819 -4.172574 4.760616 1.919474 21.09417 1.131966 -0 16.87415 -0 -2.906887 -8.497939 1.35622 0.06012227 -25.72315 -4.406624 -0 11.25532 -0 -4.01646 -7.705685 18.6903 -2.009707 -0.9919774 7.788348 -0.6369789 9.379113 -2.866251 1.312869 22.17848 5.500377 2.514533 -19.54332 6.258147 -0.1476785 -23.00767 10.7377 80.88848 24.64956 -4.306608 -0 0 22.98288 -25.08636 8.969045 16.47046 4.46349 -16.30559 -2.415984 -94.51426 22.33915 27.8655 0 0 -9.484982 -0.6615041 8.468969 14.03753
1490.797 164.7185 2625.09 1.61759 -4.482619 4.800572 1.188 20.05438 1.40615 -0 25.79688 -0 -2.918654 -4.630998 1.033413 -1.603537 -22.59655 -5.896608 -0 12.9053 -0 -3.833696 -8.003948 18.60195 -2.319157 -1.343463 7.418768 -0.8430519 9.536711 -2.919833 1.350399 22.31616 5.823919 2.761214 -19.68994 6.523701 0.1841853 -22.26885 10.67419 81.75969 24.81734 -5.286335 -0 0 21.66958 -24.99901 8.587816 16.0826 4.216877 -16.12009 -2.563552 -94.35147 22.6712 27.56453 0 0 -8.762067 -0.6138761 8.479356 14.24712
1492.548 165.0611 2632.073 1.894951 -5.459163 5.132312 0.6061711 18.22944 1.482411 -0 35.62744 -0 -3.376585 -0.2612576 0.4467133 -3.20437 -18.59647 -7.333421 -0 15.37751 -0 -3.306677 -8.379603 18.71013 -2.526388 -1.54628 6.840653 -1.094105 9.964693 -2.986169 1.48639 22.68129 6.000998 2.885574 -19.66816 6.832838 0.2096332 -21.57051 10.64883 83.41125 24.18733 -6.607105 -0 0 19.95132 -24.95975 8.214003 15.52012 3.968829 -16.18966 -3.023387 -94.03619 22.67124 26.8853 0 0 -7.819785 -0.02541838 9.044312 13.75024
1494.276 166.0171 2638.826 2.18414 -6.883934 5.747526 0.1989395 15.26395 1.378136 -0 45.0352 -0 -4.072011 3.969661 -0.373888 -4.535889 -13.92756 -8.536896 -0 17.9346 -0 -2.513582 -8.965069 18.84872 -2.629063 -1.534023 6.082045 -1.309143 10.59855 -3.147313 1.668435 23.16118 6.040405 2.875897 -19.49195 7.135132 0.04748998 -20.95602 10.69439 85.53158 23.00576 -8.167539 -0 0 18.035 -24.9195 7.995669 14.86574 3.747925 -16.5485 -3.764089 -93.46452 22.41526 25.76229 0 0 -7.052804 0.9454671 9.955752 12.72385
1495.948 167.401 2645.156 2.439806 -8.31171 6.594678 -0.0206913 10.71858 1.156705 -0 52.12024 -0 -4.699377 7.22553 -1.397535 -5.442717 -8.877041 -9.383702 -0 19.76634 -0 -1.671103 -9.950026 18.7778 -2.650663 -1.245943 5.200993 -1.358001 11.26724 -3.510985 1.811469 23.58855 6.013695 2.772461 -19.23914 7.375819 -0.06741192 -20.38042 10.83156 87.61548 21.82357 -9.901218 -0 0 16.11787 -24.73927 8.064482 14.19714 3.606005 -17.19369 -4.661834 -92.52227 22.12351 24.07876 0 0 -7.069504 1.986545 10.85092 11.54178
1497.523 168.8795 2650.96 2.587329 -9.212607 7.578018 -0.0549492 4.377506 0.8623361 -0 54.92736 -0 -5.010728 8.783815 -2.542046 -5.863274 -3.770185 -9.831204 -0 20.12947 -0 -1.038312 -11.50993 18.30158 -2.627343 -0.6832425 4.278783 -1.121613 11.73746 -4.149723 1.833842 23.80908 6.026051 2.650417 -19.03486 7.522434 0.06889773 -19.75022 11.03888 89.18406 21.23446 -11.80004 -0 0 14.32843 -24.27391 8.448113 13.56724 3.627066 -18.09177 -5.523336 -91.13538 22.02398 21.71967 0 0 -8.449625 2.791204 11.39781 10.57004
